<!DOCTYPE svg PUBLIC "-//W3C//DTD SVG 20010904//EN" "http://www.w3.org/TR/2001/REC-SVG-20010904/DTD/svg10.dtd">
<svg version="1.0" xmlns="http://www.w3.org/2000/svg" width="341px" height="62px" viewBox="0 0 3410 620" preserveAspectRatio="xMidYMid meet">
<g id="layer101" fill="#e2b853" stroke="none">
 <path d="M0 575 c0 -44 1 -45 33 -45 l32 0 0 -220 0 -220 -32 0 c-32 0 -33 -1 -33 -45 l0 -45 162 0 c143 0 167 2 204 21 119 57 156 192 80 292 -45 58 -95 81 -188 85 l-78 4 0 64 0 64 35 0 c35 0 35 0 35 45 l0 45 -125 0 -125 0 0 -45z m341 -313 c42 -46 40 -93 -5 -138 -31 -31 -39 -34 -95 -34 l-61 0 0 106 0 106 66 -4 c60 -4 70 -7 95 -36z"/>
 <path d="M520 575 c0 -43 1 -45 29 -45 l30 0 3 -140 3 -140 -32 0 c-32 0 -33 -1 -33 -45 l0 -45 86 0 c83 0 86 1 81 21 -5 19 -4 20 12 5 20 -18 84 -46 106 -46 11 0 15 12 15 49 0 48 -1 49 -35 55 -19 4 -47 18 -62 31 -27 22 -28 28 -33 139 l-5 116 33 0 c31 0 32 1 32 45 l0 45 -115 0 -115 0 0 -45z"/>
 <path d="M840 575 c0 -45 0 -45 35 -45 l35 0 0 -140 0 -140 -35 0 c-35 0 -35 0 -35 -45 l0 -45 85 0 85 0 0 185 0 185 35 0 c35 0 35 0 35 45 l0 45 -120 0 -120 0 0 -45z"/>
 <path d="M1110 582 c0 -32 13 -53 101 -162 55 -69 109 -135 120 -147 l19 -23 -70 0 -70 0 0 35 c0 35 0 35 -45 35 l-45 0 0 -80 0 -80 175 0 175 0 0 41 c0 37 -10 55 -103 173 -57 72 -106 137 -111 144 -5 9 11 12 68 12 l76 0 0 -35 c0 -35 0 -35 45 -35 l45 0 0 80 0 80 -190 0 -190 0 0 -38z"/>
 <path d="M1520 575 c0 -45 0 -45 35 -45 l35 0 0 -140 0 -140 -35 0 c-35 0 -35 0 -35 -45 l0 -45 85 0 c84 0 85 0 85 25 l0 24 25 -23 c14 -13 45 -29 68 -35 57 -14 107 0 156 44 l38 34 28 -30 c69 -71 195 -70 262 3 42 44 53 90 53 213 l0 115 30 0 c29 0 30 2 30 45 l0 45 -115 0 -115 0 0 -45 c0 -45 0 -45 36 -45 l36 0 -4 -111 -3 -111 -33 -29 c-43 -38 -98 -40 -141 -4 -30 26 -30 27 -33 140 l-3 115 33 0 c31 0 32 1 32 45 l0 45 -115 0 -115 0 0 -45 c0 -43 1 -45 30 -45 l30 0 0 -114 0 -114 -31 -26 c-35 -30 -84 -34 -129 -11 -44 23 -50 43 -50 159 l0 106 35 0 c35 0 35 0 35 45 l0 45 -120 0 -120 0 0 -45z"/>
 <path d="M2410 575 c0 -45 0 -45 35 -45 l35 0 0 -220 0 -220 -35 0 c-35 0 -35 0 -35 -45 l0 -45 235 0 235 0 0 85 0 85 -55 0 -55 0 0 -40 0 -40 -85 0 -85 0 0 80 0 80 100 0 100 0 0 55 0 55 -100 0 -100 0 0 85 0 85 84 0 85 0 3 -47 3 -48 50 1 50 1 3 92 3 91 -236 0 -235 0 0 -45z"/>
 <path d="M2920 575 c0 -43 1 -45 30 -45 24 0 40 -13 89 -71 l60 -72 -61 -68 c-48 -55 -67 -69 -89 -69 -28 0 -29 -2 -29 -45 l0 -45 105 0 105 0 0 40 c0 22 -5 40 -10 40 -12 0 -2 20 28 59 l19 24 27 -39 c14 -21 22 -40 16 -42 -5 -2 -10 -21 -10 -43 l0 -39 105 0 105 0 0 45 c0 43 -1 45 -29 45 -24 0 -40 12 -85 66 -31 36 -56 69 -56 74 0 5 25 38 56 74 45 54 61 66 85 66 28 0 29 2 29 45 l0 45 -105 0 -105 0 0 -40 c0 -29 4 -40 15 -40 12 0 7 -11 -16 -40 l-32 -40 -33 38 c-23 26 -28 38 -18 40 9 2 14 17 14 43 l0 39 -105 0 -105 0 0 -45z"/>
 <path d="M910 55 l0 -55 50 0 50 0 0 55 0 55 -50 0 -50 0 0 -55z"/>
 </g>
<g id="layer102" fill="#ffffff" stroke="none">
 <path d="M0 575 c0 -44 1 -45 33 -45 l32 0 0 -220 0 -220 -32 0 c-32 0 -33 -1 -33 -45 l0 -45 162 0 c143 0 167 2 204 21 119 57 156 192 80 292 -45 58 -95 81 -188 85 l-78 4 0 64 0 64 35 0 c35 0 35 0 35 45 l0 45 -125 0 -125 0 0 -45z m341 -313 c42 -46 40 -93 -5 -138 -31 -31 -39 -34 -95 -34 l-61 0 0 106 0 106 66 -4 c60 -4 70 -7 95 -36z"/>
 <path d="M520 575 c0 -43 1 -45 29 -45 l30 0 3 -140 3 -140 -32 0 c-32 0 -33 -1 -33 -45 l0 -45 86 0 c83 0 86 1 81 21 -5 19 -4 20 12 5 20 -18 84 -46 106 -46 11 0 15 12 15 49 0 48 -1 49 -35 55 -19 4 -47 18 -62 31 -27 22 -28 28 -33 139 l-5 116 33 0 c31 0 32 1 32 45 l0 45 -115 0 -115 0 0 -45z"/>
 <path d="M840 575 c0 -45 0 -45 35 -45 l35 0 0 -140 0 -140 -35 0 c-35 0 -35 0 -35 -45 l0 -45 85 0 85 0 0 185 0 185 35 0 c35 0 35 0 35 45 l0 45 -120 0 -120 0 0 -45z"/>
 <path d="M1110 582 c0 -32 13 -53 101 -162 55 -69 109 -135 120 -147 l19 -23 -70 0 -70 0 0 35 c0 35 0 35 -45 35 l-45 0 0 -80 0 -80 175 0 175 0 0 41 c0 37 -10 55 -103 173 -57 72 -106 137 -111 144 -5 9 11 12 68 12 l76 0 0 -35 c0 -35 0 -35 45 -35 l45 0 0 80 0 80 -190 0 -190 0 0 -38z"/>
 <path d="M1520 575 c0 -45 0 -45 35 -45 l35 0 0 -140 0 -140 -35 0 c-35 0 -35 0 -35 -45 l0 -45 85 0 c84 0 85 0 85 25 l0 24 25 -23 c14 -13 45 -29 68 -35 57 -14 107 0 156 44 l38 34 28 -30 c69 -71 195 -70 262 3 42 44 53 90 53 213 l0 115 30 0 c29 0 30 2 30 45 l0 45 -115 0 -115 0 0 -45 c0 -45 0 -45 36 -45 l36 0 -4 -111 -3 -111 -33 -29 c-43 -38 -98 -40 -141 -4 -30 26 -30 27 -33 140 l-3 115 33 0 c31 0 32 1 32 45 l0 45 -115 0 -115 0 0 -45 c0 -43 1 -45 30 -45 l30 0 0 -114 0 -114 -31 -26 c-35 -30 -84 -34 -129 -11 -44 23 -50 43 -50 159 l0 106 35 0 c35 0 35 0 35 45 l0 45 -120 0 -120 0 0 -45z"/>
 <path d="M910 55 l0 -55 50 0 50 0 0 55 0 55 -50 0 -50 0 0 -55z"/>
 </g>

</svg>